#!OML:ASF F:\VICON\USERDATA\INSTALL\rory3\rory3.ASF
:FULLY-SPECIFIED
:DEGREES
32
root -0.0203 18.3913 -61.9035 6.44202 1.5708 2.84224
lowerback 13.3899 -3.19723 -4.11948
upperback -0.453569 -4.88373 0.207623
thorax -7.63116 -2.20403 3.48963
lowerneck -6.26824 3.64951 0.404812
upperneck -7.99396 4.68698 -2.97442
head -1.35009 2.35557 -0.953224
rclavicle -5.17461e-014 -2.45499e-014
rhumerus -64.5087 1.90623 -77.2206
rradius 83.9304
rwrist -4.70725
rhand -36.0259 34.1283
rfingers 7.12502
rthumb -9.13484 4.34618
lclavicle -5.17461e-014 -2.45499e-014
lhumerus -17.1887 -18.9384 88.1615
lradius 119.399
lwrist 25.1386
lhand -37.4106 2.33571
lfingers 7.12502
lthumb -10.4708 32.0549
rfemur -43.6451 6.03906 16.7802
rtibia 41.8387
rfoot 0.999742 -2.44211
rtoes -12.3755
lfemur 27.565 -4.49275 -30.9184
ltibia 7.09195
lfoot 35.6113 3.49831
ltoes -18.4045
33
root -0.0202 18.404 -61.9035 6.46108 1.5708 3.19834
lowerback 13.2115 -3.1909 -4.32301
upperback -0.465076 -4.90165 0.180644
thorax -7.52702 -2.20932 3.56475
lowerneck -6.3029 3.67843 0.26466
upperneck -8.2272 4.73081 -2.88521
head -1.42283 2.38125 -0.905615
rclavicle 2.09221e-014 5.81445e-015
rhumerus -64.3174 1.68378 -77.2268
rradius 84.367
rwrist -4.47224
rhand -35.7397 34.1178
rfingers 7.12502
rthumb -8.85865 4.32375
lclavicle 2.09221e-014 5.81445e-015
lhumerus -17.7002 -19.5298 88.4349
lradius 119.285
lwrist 24.3965
lhand -37.6958 3.37466
lfingers 7.12502
lthumb -10.7459 33.0798
rfemur -42.5028 6.6107 16.2458
rtibia 36.9463
rfoot 1.81321 -3.54682
rtoes -12.8921
lfemur 26.3679 -5.00199 -31.9813
ltibia 11.6777
lfoot 33.5867 3.03183
ltoes -18.0838
34
root -0.0202 18.4176 -61.9035 6.43164 1.5708 3.52407
lowerback 13.0264 -3.13845 -4.49409
upperback -0.282186 -4.84976 0.0910468
thorax -7.22429 -2.19342 3.53344
lowerneck -6.79329 3.6368 0.319994
upperneck -8.28489 4.67252 -2.84546
head -1.36076 2.34662 -0.892741
rclavicle 7.88057e-014 2.71341e-014
rhumerus -63.6925 1.13466 -77.3302
rradius 84.737
rwrist -4.17993
rhand -35.6642 34.324
rfingers 7.12502
rthumb -8.78574 4.52684
lclavicle 7.88057e-014 2.71341e-014
lhumerus -18.042 -20.2429 88.6168
lradius 119.12
lwrist 23.9354
lhand -37.574 4.40538
lfingers 7.12502
lthumb -10.6283 34.1166
rfemur -41.1715 7.0608 15.8408
rtibia 32.5606
rfoot 1.3765 -4.73269
rtoes -13.8297
lfemur 25.1616 -5.5961 -32.9128
ltibia 16.3161
lfoot 31.7879 3.36686
ltoes -14.5003
35
root -0.0201 18.4225 -61.9035 6.38675 1.5708 3.83994
lowerback 12.6988 -3.06689 -4.56031
upperback 0.0561511 -4.74718 -0.0648383
thorax -6.6943 -2.1685 3.34858
lowerneck -7.31381 3.58374 0.523068
upperneck -8.58806 4.576 -2.96684
head -1.36578 2.29151 -0.958938
rclavicle -8.43965e-014 -3.23025e-015
rhumerus -62.8163 0.462474 -77.6096
rradius 85.2295
rwrist -3.97978
rhand -35.9002 34.267
rfingers 7.12502
rthumb -9.01351 4.47955
lclavicle -8.43965e-014 -3.23025e-015
lhumerus -18.2806 -20.7978 88.7368
lradius 118.744
lwrist 24.0735
lhand -37.0618 4.08024
lfingers 7.12502
lthumb -10.1342 33.8162
rfemur -39.9065 7.22229 15.6368
rtibia 28.8974
rfoot 1.0439 -5.5999
rtoes -14.8334
lfemur 23.8579 -6.22328 -33.7565
ltibia 21.1595
lfoot 30.5705 4.06353
ltoes -14.3967
36
root -0.0201 18.4155 -61.9035 6.0926 1.5708 4.1054
lowerback 12.7303 -3.03085 -4.59766
upperback 0.375341 -4.70324 -0.187841
thorax -6.38249 -2.16336 3.22063
lowerneck -7.38848 3.58848 0.427345
upperneck -9.24595 4.57563 -2.90474
head -1.5668 2.29651 -0.934465
rclavicle 2.64446e-014 3.72721e-015
rhumerus -61.913 0.124315 -77.9843
rradius 85.6329
rwrist -3.99486
rhand -35.9526 34.2129
rfingers 7.12502
rthumb -9.0641 4.42763
lclavicle 2.64446e-014 3.72721e-015
lhumerus -19.0056 -21.0233 89.0343
lradius 118.264
lwrist 24.0925
lhand -37.1878 2.48127
lfingers 7.12502
lthumb -10.2558 32.2112
rfemur -38.5266 7.10043 15.7438
rtibia 26.1329
rfoot 1.28601 -6.33711
rtoes -15.9344
lfemur 22.5981 -5.29845 -33.8165
ltibia 26.1961
lfoot 30.2726 3.66924
ltoes -17.7045
37
root -0.02 18.4004 -61.9035 5.69929 1.5708 4.11044
lowerback 13.0048 -2.98969 -4.54706
upperback 0.637588 -4.64206 -0.130685
thorax -6.26045 -2.14192 3.25038
lowerneck -7.14706 3.58996 0.0839294
upperneck -9.90138 4.59243 -2.73065
head -1.82956 2.31912 -0.841374
rclavicle 5.57723e-014 9.83363e-015
rhumerus -60.8487 -0.0607832 -78.1881
rradius 85.7568
rwrist -4.21638
rhand -35.0288 34.1185
rfingers 7.12502
rthumb -8.17252 4.29653
lclavicle 5.57723e-014 9.83363e-015
lhumerus -19.9827 -21.1078 89.5809
lradius 117.677
lwrist 23.6584
lhand -37.4307 2.33584
lfingers 7.12502
lthumb -10.4901 32.0541
rfemur -37.0441 6.98192 16.2395
rtibia 24.1042
rfoot 1.85769 -7.29686
rtoes -17.1193
lfemur 21.2158 -4.46754 -33.6071
ltibia 31.5494
lfoot 29.6685 3.84204
ltoes -17.3501
